<svg width="32" height="32" fill="none" xmlns="http://www.w3.org/2000/svg"><mask id="a" style="mask-type:alpha" maskUnits="userSpaceOnUse" x="6" y="9" width="20" height="14"><path fill-rule="evenodd" clip-rule="evenodd" d="M6 9h20v13.334H6V9Z" fill="#fff"/></mask><g mask="url(#a)" fill-rule="evenodd" clip-rule="evenodd"><path d="M13.155 14.805c0 .555-.43 1.005-.961 1.005-.531 0-.962-.45-.962-1.005 0-.555.43-1.005.962-1.005.531 0 .961.45.961 1.005Z" fill="#465166"/><path d="M9.78 13.24v2.833c0 1.244.589 1.851 1.748 2.6l.6.387.6-.387c1.16-.749 1.749-1.356 1.749-2.6v-2.837l-2.311-1.01L9.78 13.24Zm2.348 6.829a.43.43 0 0 1-.233-.07l-.833-.537c-1.34-.864-2.17-1.733-2.17-3.39v-3.145c0-.188.11-.358.276-.43l2.833-1.204a.428.428 0 0 1 .338.002l2.753 1.204a.465.465 0 0 1 .273.428v3.146c0 1.656-.83 2.524-2.17 3.389L12.36 20a.429.429 0 0 1-.233.069Z" fill="#EF6E0B"/><path d="M18.321 14.404c.763 0 .765-1.24 0-1.24-.763 0-.765 1.24 0 1.24Zm0 2.04c.763 0 .765-1.24 0-1.24-.763 0-.765 1.24 0 1.24Zm0 2.087c.763 0 .765-1.24 0-1.24-.763 0-.765 1.24 0 1.24Zm4.588-4.296h-2.962a.455.455 0 0 1-.444-.464c0-.256.199-.464.444-.464h2.962c.245 0 .444.208.444.464a.455.455 0 0 1-.444.464Zm0 1.993h-2.962a.455.455 0 0 1-.444-.464c0-.256.199-.464.444-.464h2.962c.245 0 .444.208.444.464a.455.455 0 0 1-.444.464Zm0 1.992h-2.962a.455.455 0 0 1-.444-.464c0-.256.199-.464.444-.464h2.962c.245 0 .444.208.444.464a.455.455 0 0 1-.444.464Z" fill="#465166"/><path d="M23.402 22.334h-4.244a.455.455 0 0 1-.444-.465c0-.256.2-.464.445-.464h4.243c.943 0 1.71-.801 1.71-1.787v-7.903c0-.985-.767-1.787-1.71-1.787H8.598c-.943 0-1.71.802-1.71 1.787v7.903c0 .986.767 1.787 1.71 1.787h8.432c.245 0 .444.208.444.464a.455.455 0 0 1-.444.465H8.598C7.166 22.334 6 21.116 6 19.618v-7.903C6 10.218 7.166 9 8.598 9h14.804C24.835 9 26 10.218 26 11.715v7.903c0 1.498-1.165 2.716-2.598 2.716Z" fill="#465166"/></g></svg>