<svg width="32" height="32" fill="none" xmlns="http://www.w3.org/2000/svg"><path fill-rule="evenodd" clip-rule="evenodd" d="M22.454 23.105H9.546C7.591 23.105 6 21.529 6 19.592v-6.684c0-1.434 1.178-2.601 2.626-2.601h2.74c.268 0 .486.215.486.481a.484.484 0 0 1-.486.482h-2.74c-.912 0-1.654.735-1.654 1.638v6.684c0 1.406 1.155 2.55 2.574 2.55h12.908c1.419 0 2.574-1.144 2.574-2.55v-6.684c0-.903-.742-1.638-1.654-1.638h-2.572a.484.484 0 0 1-.486-.482c0-.266.218-.481.486-.481h2.572c1.448 0 2.626 1.167 2.626 2.6v6.685c0 1.937-1.59 3.513-3.546 3.513Z" fill="#465166"/><path fill-rule="evenodd" clip-rule="evenodd" d="M22.059 24.667H9.939c-1.955 0-3.545-1.576-3.545-3.513 0-.265.217-.481.486-.481.268 0 .486.216.486.481 0 1.406 1.154 2.55 2.574 2.55h12.119c1.42 0 2.574-1.144 2.574-2.55 0-.265.218-.481.486-.481s.486.216.486.481c0 1.937-1.59 3.513-3.546 3.513ZM18.102 11.27H13.91a.484.484 0 0 1-.486-.48c0-.267.218-.482.486-.482h4.192c.269 0 .486.215.486.481a.484.484 0 0 1-.486.482Z" fill="#465166"/><path fill-rule="evenodd" clip-rule="evenodd" d="M13.363 17.985h-.88c-.324 0-.587-.215-.587-.48 0-.266.263-.481.587-.481h.88c.324 0 .586.215.586.48 0 .266-.262.481-.586.481Zm3.07 0h-.879c-.324 0-.587-.216-.587-.482 0-.265.263-.48.587-.48h.88c.324 0 .586.215.586.48 0 .266-.262.481-.586.481Zm3.071 0h-.88c-.323 0-.586-.216-.586-.482 0-.265.262-.48.587-.48h.88c.323 0 .586.215.586.48 0 .266-.263.481-.587.481Zm-6.141-2.02h-.88c-.324 0-.587-.215-.587-.48 0-.266.263-.482.587-.482h.88c.324 0 .586.216.586.481 0 .266-.262.481-.586.481Zm3.07 0h-.879c-.324 0-.587-.216-.587-.481 0-.266.263-.481.587-.481h.88c.324 0 .586.215.586.481 0 .265-.262.481-.586.481Zm3.071 0h-.88c-.323 0-.586-.216-.586-.481 0-.266.262-.481.587-.481h.88c.323 0 .586.215.586.481 0 .265-.263.481-.587.481Zm-6.141 3.95h-.88c-.324 0-.587-.216-.587-.481 0-.266.263-.481.587-.481h.88c.324 0 .586.215.586.48 0 .266-.262.482-.586.482Zm3.07 0h-.879c-.324 0-.587-.216-.587-.482 0-.265.263-.48.587-.48h.88c.324 0 .586.215.586.48 0 .266-.262.481-.586.481Z" fill="#EF6E0B"/><path fill-rule="evenodd" clip-rule="evenodd" d="M12.586 8.963a.46.46 0 0 0-.462.458v2.574a.46.46 0 0 0 .462.459h.102a.46.46 0 0 0 .462-.459V9.421a.46.46 0 0 0-.462-.458h-.102Zm.102 4.453h-.101a1.43 1.43 0 0 1-1.435-1.421V9.421A1.43 1.43 0 0 1 12.587 8h.101a1.43 1.43 0 0 1 1.434 1.42v2.575a1.43 1.43 0 0 1-1.434 1.421Zm6.759-4.454a.46.46 0 0 0-.463.458v2.575a.46.46 0 0 0 .463.458h.101a.46.46 0 0 0 .462-.458V9.42a.46.46 0 0 0-.462-.458h-.101Zm.101 4.454h-.1a1.43 1.43 0 0 1-1.435-1.421V9.421c0-.784.643-1.421 1.434-1.421h.101a1.43 1.43 0 0 1 1.435 1.42v2.575a1.43 1.43 0 0 1-1.435 1.421Z" fill="#465166"/></svg>