<svg width="32" height="32" fill="none" xmlns="http://www.w3.org/2000/svg"><path fill-rule="evenodd" clip-rule="evenodd" d="M20.338 17.613h-8.713a2 2 0 0 0-2 2v1.573h12.713v-1.573a2 2 0 0 0-2-2Zm-8.713-1a3 3 0 0 0-3 3v2.573h14.713v-2.573a3 3 0 0 0-3-3h-8.713Z" fill="#465166"/><path fill-rule="evenodd" clip-rule="evenodd" d="M17.822 14.129h-3.7a3 3 0 0 0-2.886 2.18h9.472a3 3 0 0 0-2.886-2.18Zm3.88 2.028a4 4 0 0 0-3.88-3.028h-3.7a4 4 0 0 0-3.88 3.028l-.289 1.152h12.038l-.289-1.152Z" fill="#465166"/><path d="M11.952 19.752c0 .577-.45 1.045-1.004 1.045s-1.003-.468-1.003-1.045.45-1.045 1.003-1.045c.554 0 1.004.468 1.004 1.045Z" fill="#fff"/><path fill-rule="evenodd" clip-rule="evenodd" d="M10.948 19.776a.086.086 0 0 0 0-.048.09.09 0 0 0 0 .048Zm0 1.02c.554 0 1.004-.467 1.004-1.044s-.45-1.045-1.004-1.045-1.003.468-1.003 1.045.45 1.045 1.003 1.045Z" fill="#F17D01"/><path d="M21.983 19.752c0 .577-.45 1.045-1.003 1.045-.554 0-1.003-.468-1.003-1.045s.449-1.045 1.003-1.045c.554 0 1.003.468 1.003 1.045Z" fill="#fff"/><path fill-rule="evenodd" clip-rule="evenodd" d="M20.98 19.776a.086.086 0 0 0 .003-.024.086.086 0 0 0-.003-.024.086.086 0 0 0-.003.024c0 .01 0 .017.003.024Zm0 1.02c.554 0 1.003-.467 1.003-1.044s-.45-1.045-1.003-1.045c-.554 0-1.003.468-1.003 1.045s.449 1.045 1.003 1.045Z" fill="#F17D01"/><path d="M13.96 19.573c0-.097.079-.175.175-.175H17.8a.174.174 0 0 1 0 .349h-3.664a.174.174 0 0 1-.174-.174Zm0 .867c0-.096.079-.174.175-.174H17.8a.174.174 0 0 1 0 .348h-3.664a.174.174 0 0 1-.174-.174Z" fill="#465166"/><path fill-rule="evenodd" clip-rule="evenodd" d="M10.152 25.273a.993.993 0 0 1-.207-.606v-.394h2.007v.394a1.003 1.003 0 0 1-1.8.607Zm10.031 0a.992.992 0 0 1-.206-.606v-.394h2.006v.394a1.003 1.003 0 0 1-1.8.607Z" fill="#465166"/><path fill-rule="evenodd" clip-rule="evenodd" d="M8.957 22.488c.07.446.457.787.923.787h12.18c.467 0 .853-.34.924-.787H8.957Zm-.16-1a.852.852 0 0 0-.852.852c0 1.069.866 1.935 1.935 1.935h12.18a1.935 1.935 0 0 0 1.935-1.935.852.852 0 0 0-.852-.852H8.797Z" fill="#465166"/><path d="m17.9 5.449-.197 1.062h.221a.624.624 0 1 1 0 1.248h-.454l-.148.789a.554.554 0 0 1-1.09-.205l.11-.584h-1.17l-.148.789a.554.554 0 0 1-1.09-.205l.11-.584h-.42a.624.624 0 0 1 0-1.248h.652l.198-1.062h-.398a.624.624 0 1 1 0-1.249h.623l.14-.748a.554.554 0 0 1 1.09.205l-.102.543h1.17l.141-.748a.554.554 0 0 1 1.09.205l-.102.543h.25a.624.624 0 0 1 0 1.249H17.9Zm-1.128 0h-1.17l-.198 1.062h1.17l.198-1.062Z" fill="#F17D01"/><path fill-rule="evenodd" clip-rule="evenodd" d="M27.562 23.746a.54.54 0 0 1 .54.54v2.376a2.338 2.338 0 0 1-2.338 2.337h-2.376a.54.54 0 0 1 0-1.079h2.376c.695 0 1.259-.563 1.259-1.258v-2.377a.54.54 0 0 1 .54-.539ZM3.93 9.54A.54.54 0 0 1 3.39 9V6.624a2.338 2.338 0 0 1 2.338-2.338h2.376a.54.54 0 1 1 0 1.079H5.728c-.695 0-1.258.563-1.258 1.259V9a.54.54 0 0 1-.54.54Zm18.914-4.715a.54.54 0 0 1 .54-.54h2.375a2.338 2.338 0 0 1 2.338 2.338v2.376a.54.54 0 1 1-1.079 0V6.623a1.26 1.26 0 0 0-1.259-1.259h-2.376a.54.54 0 0 1-.54-.54ZM8.64 28.46a.54.54 0 0 1-.539.54H5.725a2.338 2.338 0 0 1-2.337-2.338v-2.376a.54.54 0 1 1 1.078 0v2.376c0 .696.564 1.26 1.26 1.26H8.1a.54.54 0 0 1 .54.539Z" fill="#465166"/></svg>