<svg width="32" height="32" fill="none" xmlns="http://www.w3.org/2000/svg"><mask id="a" style="mask-type:alpha" maskUnits="userSpaceOnUse" x="6" y="8" width="20" height="14"><path fill-rule="evenodd" clip-rule="evenodd" d="M6 8h20v13.294H6V8Z" fill="#fff"/></mask><g mask="url(#a)"><path fill-rule="evenodd" clip-rule="evenodd" d="M22.648 21.294h-5.072a.476.476 0 0 1 0-.953h5.072c1.323 0 2.4-1.076 2.4-2.4v-6.589c0-1.323-1.077-2.4-2.4-2.4H9.352a2.402 2.402 0 0 0-2.4 2.4v6.59c0 1.323 1.077 2.4 2.4 2.4h5.464a.477.477 0 0 1 0 .952H9.352A3.356 3.356 0 0 1 6 17.942v-6.59A3.356 3.356 0 0 1 9.352 8h13.296A3.356 3.356 0 0 1 26 11.352v6.59a3.356 3.356 0 0 1-3.352 3.352Z" fill="#465166"/></g><path fill-rule="evenodd" clip-rule="evenodd" d="M15.274 15.955a.476.476 0 0 1-.409-.232L13.74 13.84a.476.476 0 1 1 .818-.489l1.125 1.882a.477.477 0 0 1-.409.72Zm-1.513 3.306h-1.27a.477.477 0 0 1 0-.952h1.27a.476.476 0 0 1 0 .952Zm3.389 0h-1.27a.477.477 0 0 1 0-.952h1.27a.477.477 0 0 1 0 .952Zm2.96 0h-.845a.477.477 0 0 1 0-.952h.845a.477.477 0 0 1 0 .952Z" fill="#465166"/><path fill-rule="evenodd" clip-rule="evenodd" d="M21.107 16.554a.476.476 0 0 1-.476-.473c-.019-2.196-1.585-4.01-3.81-4.409a.476.476 0 1 1 .168-.937c2.683.481 4.572 2.677 4.594 5.338a.476.476 0 0 1-.472.48h-.004Z" fill="#EF6E0B"/><path fill-rule="evenodd" clip-rule="evenodd" d="M10.69 16.64a.476.476 0 0 1-.477-.472c-.022-2.662 1.829-4.889 4.501-5.415a.478.478 0 0 1 .184.935c-2.216.436-3.75 2.275-3.732 4.472a.476.476 0 0 1-.473.48h-.004Z" fill="#465166"/><path fill-rule="evenodd" clip-rule="evenodd" d="M23.102 23.074H9.332a.477.477 0 0 1 0-.953h13.77a.477.477 0 0 1 0 .953Z" fill="#EF6E0B"/></svg>