<svg width="32" height="32" fill="none" xmlns="http://www.w3.org/2000/svg"><path d="M9 10V6.667m0 2h1a1 1 0 1 0 0-2H9M10 14H9m2 1.333L10 14a1 1 0 1 0 0-2H9v3.333m0 5.333v-3.333h.033l1.934 3.333H11v-3.333M9 26v-3.333h1a1 1 0 0 1 1 1V25a1 1 0 0 1-1 1H9Z" stroke="#465166" stroke-width=".75" stroke-miterlimit="10" stroke-linecap="round" stroke-linejoin="round"/><path d="M15.667 19.333v5.333c0 .737.596 1.334 1.333 1.334h4c.737 0 1.334-.597 1.334-1.334v-5.333m0-4v-8C22.334 6.596 21.737 6 21 6h-4c-.737 0-1.333.596-1.333 1.333v8m3.333.001V8.667m0 10.666v4" stroke="#465166" stroke-miterlimit="10" stroke-linecap="round" stroke-linejoin="round"/><path d="M14.333 18c0 .737.596 1.333 1.333 1.333h6.667c.737 0 1.333-.596 1.333-1.333v-1.334c0-.737-.596-1.333-1.333-1.333h-6.667c-.737 0-1.333.596-1.333 1.333V18Z" stroke="#EF6E0B" stroke-miterlimit="10" stroke-linecap="round" stroke-linejoin="round"/></svg>