<svg width="32" height="32" fill="none" xmlns="http://www.w3.org/2000/svg"><circle cx="16" cy="16" r="9.5" fill="#fff" stroke="#465166"/><path d="M15.524 11.082a.5.5 0 0 1 .952 0l.62 1.91a1.5 1.5 0 0 0 1.427 1.036h2.008a.5.5 0 0 1 .294.904l-1.625 1.18a1.5 1.5 0 0 0-.545 1.678l.62 1.91a.5.5 0 0 1-.769.559l-1.624-1.18a1.5 1.5 0 0 0-1.764 0l-1.624 1.18a.5.5 0 0 1-.77-.56l.62-1.91a1.5 1.5 0 0 0-.544-1.676l-1.625-1.18a.5.5 0 0 1 .294-.905h2.008a1.5 1.5 0 0 0 1.427-1.037l.62-1.91Z" stroke="#EF6E0B" stroke-linejoin="round"/></svg>