<svg width="32" height="32" fill="none" xmlns="http://www.w3.org/2000/svg"><circle cx="16" cy="16" r="9.5" stroke="#465166"/><path d="M16 8.375c-4.25 0-7.625 3.469-7.625 7.625 0 4.156 3.375 7.625 7.625 7.625 4.219 0 7.625-3.438 7.625-7.625 0-4.188-3.406-7.625-7.625-7.625Zm-6.844 9.031c2.875.219 5.188 2.532 5.375 5.407a6.967 6.967 0 0 1-5.375-5.407Zm8.313 5.438c.187-2.875 2.5-5.219 5.375-5.407-.563 2.688-2.688 4.813-5.375 5.407ZM22.687 14a7.53 7.53 0 0 1 .282 2c0 .188 0 .438-.032.656 0 .094-.062.157-.156.157-3.187.218-5.75 2.812-5.968 6.03 0 .22-.407.188-.938.188-.344 0-.719.032-.75-.187-.219-3.188-2.781-5.782-5.969-6.032-.156 0-.156-.25-.156-.468v-.313c0-.375.125-2 .375-2.093 2.063-.97 4.281-1.438 6.594-1.438 3.344-.031 6.656 1.219 6.719 1.5ZM16 11.844a16.47 16.47 0 0 0-6.375 1.281C10.75 10.687 13.188 9 16 9c2.813 0 5.25 1.688 6.375 4.094-2.031-.813-4.156-1.25-6.375-1.25Z" fill="#465166"/><path d="M13.656 16c0 1.313 1.063 2.375 2.344 2.375 1.313 0 2.344-1.063 2.344-2.375A2.34 2.34 0 0 0 16 13.656 2.321 2.321 0 0 0 13.656 16Zm4.063 0c0 .969-.782 1.75-1.719 1.75-.938 0-1.719-.781-1.719-1.75s.781-1.719 1.719-1.719c.938 0 1.719.75 1.719 1.719Z" fill="#EF6E0B"/></svg>