<svg width="32" height="32" fill="none" xmlns="http://www.w3.org/2000/svg"><path fill-rule="evenodd" clip-rule="evenodd" d="M9.203 23.255H6.46a.474.474 0 0 1-.46-.486c0-.268.206-.486.46-.486h2.743c.254 0 .46.218.46.486a.474.474 0 0 1-.46.486Zm16.287 0h-3.205a.474.474 0 0 1-.46-.486c0-.268.206-.486.46-.486h3.204c.254 0 .46.218.46.486a.474.474 0 0 1-.46.486Z" fill="#465166"/><path fill-rule="evenodd" clip-rule="evenodd" d="M17.036 22.901a.474.474 0 0 1-.46-.486v-3.379c0-.606.467-1.1 1.042-1.1h1.435c.574 0 1.041.494 1.041 1.1v3.258a.474.474 0 0 1-.46.486.474.474 0 0 1-.46-.486v-3.258a.125.125 0 0 0-.121-.128h-1.435a.125.125 0 0 0-.122.128v3.38a.474.474 0 0 1-.46.485Zm-8.108 2.432H6.592a.474.474 0 0 1-.46-.486c0-.268.206-.486.46-.486h2.336c.254 0 .46.218.46.486a.474.474 0 0 1-.46.486Z" fill="#EF6E0B"/><mask id="a" style="mask-type:alpha" maskUnits="userSpaceOnUse" x="11" y="24" width="16" height="2"><path fill-rule="evenodd" clip-rule="evenodd" d="M11.002 24.361H26v.972H11.002v-.972Z" fill="#fff"/></mask><g mask="url(#a)"><path fill-rule="evenodd" clip-rule="evenodd" d="M25.54 25.333H11.463a.474.474 0 0 1-.46-.486c0-.268.206-.486.46-.486H25.54c.253 0 .46.218.46.486a.474.474 0 0 1-.46.486Z" fill="#465166"/></g><path fill-rule="evenodd" clip-rule="evenodd" d="M9.336 22.282h4.765v-9.888h-3.523c-.685 0-1.242.588-1.242 1.312v8.576Zm5.226.971H8.877a.474.474 0 0 1-.46-.486v-9.062c0-1.259.97-2.283 2.162-2.283h3.983c.254 0 .46.218.46.486v10.86a.474.474 0 0 1-.46.485Z" fill="#465166"/><path fill-rule="evenodd" clip-rule="evenodd" d="M22.165 23.253h-7.321a.474.474 0 0 1-.46-.485c0-.269.206-.486.46-.486h6.86V9.68c0-.943-.725-1.71-1.617-1.71h-4.783v.65a.473.473 0 0 1-.46.485.474.474 0 0 1-.46-.486V7.486c0-.268.206-.486.46-.486h5.243c1.399 0 2.538 1.203 2.538 2.68v13.088a.474.474 0 0 1-.46.485Z" fill="#465166"/><path fill-rule="evenodd" clip-rule="evenodd" d="M14.543 15.12H8.926a.474.474 0 0 1-.46-.487c0-.268.206-.485.46-.485h5.617c.254 0 .46.217.46.485a.474.474 0 0 1-.46.486Zm7.597-4.379h-7.253a.474.474 0 0 1-.46-.486c0-.268.206-.485.46-.485h7.252c.254 0 .46.217.46.485a.474.474 0 0 1-.46.486Z" fill="#465166"/></svg>